<svg id="Capa_1" enable-background="new 0 0 512 512" height="512" viewBox="0 0 512 512" width="512" xmlns="http://www.w3.org/2000/svg"><g><g><path clip-rule="evenodd" d="m148.374 163.166v198.683h92.097 58.813l95.358-99.342-95.358-99.341z" fill="#75cef8" fill-rule="evenodd"/></g><g><path clip-rule="evenodd" d="m210.741 262.493-62.368-99.327h-75.792-69.466c-2.445 0-3.933 2.691-2.633 4.762l59.35 94.565-59.352 94.594c-1.299 2.071.189 4.761 2.634 4.761h145.26z" fill="#ffd772" fill-rule="evenodd"/></g><g><path clip-rule="evenodd" d="m299.284 163.166 62.368 99.327-62.368 99.356h149.191c1.07 0 2.064-.55 2.633-1.456l60.416-96.247c.634-1.011.634-2.296 0-3.306l-60.416-96.218c-.569-.906-1.563-1.456-2.633-1.456h-63.439z" fill="#eb5468" fill-rule="evenodd"/></g><g><path clip-rule="evenodd" d="m100.871 163.166 62.338 99.327-62.338 99.356h47.503l62.367-99.356-62.367-99.327z" fill="#fbba58" fill-rule="evenodd"/></g><g><path clip-rule="evenodd" d="m251.781 163.166 62.339 99.327-62.339 99.356h47.503l62.368-99.356-62.368-99.327z" fill="#60b7ff" fill-rule="evenodd"/></g><g><path clip-rule="evenodd" d="m402.662 163.166 62.368 99.327-62.368 99.356h45.813c1.07 0 2.064-.55 2.633-1.456l60.416-96.247c.634-1.011.634-2.296 0-3.306l-60.416-96.218c-.569-.906-1.563-1.456-2.633-1.456z" fill="#e5384f" fill-rule="evenodd"/></g><g><path d="m240.471 424.94c-4.293 0-7.773-3.48-7.773-7.773v-104.321c0-4.293 3.48-7.773 7.773-7.773s7.773 3.48 7.773 7.773v104.321c0 4.293-3.48 7.773-7.773 7.773z" fill="#2b4d66"/></g><g><path d="m72.581 206.926c-4.293 0-7.773-3.48-7.773-7.773v-104.349c0-4.293 3.48-7.773 7.773-7.773s7.773 3.48 7.773 7.773v104.35c-.001 4.292-3.481 7.772-7.773 7.772z" fill="#2b4d66"/></g><g><path d="m385.036 206.926c-4.293 0-7.773-3.48-7.773-7.773v-104.349c0-4.293 3.48-7.773 7.773-7.773s7.773 3.48 7.773 7.773v104.35c0 4.292-3.48 7.772-7.773 7.772z" fill="#2b4d66"/></g><g><path clip-rule="evenodd" d="m72.581 94.803c16.804 0 30.435-13.631 30.435-30.435s-13.631-30.436-30.435-30.436-30.435 13.632-30.435 30.436 13.631 30.435 30.435 30.435z" fill="#a7e9a6" fill-rule="evenodd"/></g><g><path clip-rule="evenodd" d="m385.036 33.932c-16.804 0-30.435 13.631-30.435 30.436 0 16.804 13.631 30.435 30.435 30.435 16.833 0 30.435-13.631 30.435-30.435s-13.602-30.436-30.435-30.436z" fill="#a7e9a6" fill-rule="evenodd"/></g><g><path clip-rule="evenodd" d="m72.581 94.803c16.804 0 30.435-13.631 30.435-30.435s-13.631-30.436-30.435-30.436c-3.613 0-7.08.617-10.311 1.792 11.28 4.466 19.242 15.453 19.242 28.291 0 13.191-8.402 24.442-20.153 28.673 3.466 1.381 7.256 2.115 11.222 2.115z" fill="#7fdbae" fill-rule="evenodd"/></g><g><path clip-rule="evenodd" d="m374.725 35.724c11.281 4.465 19.242 15.453 19.242 28.291 0 13.191-8.402 24.442-20.153 28.673 3.496 1.381 7.256 2.115 11.222 2.115 16.833 0 30.435-13.631 30.435-30.435s-13.602-30.436-30.435-30.436c-3.613 0-7.08.617-10.311 1.792z" fill="#7fdbae" fill-rule="evenodd"/></g><g><path clip-rule="evenodd" d="m270.906 447.632c0-16.834-13.631-30.465-30.435-30.465s-30.435 13.631-30.435 30.465c0 16.804 13.631 30.436 30.435 30.436s30.435-13.632 30.435-30.436z" fill="#a7e9a6" fill-rule="evenodd"/></g><g><path clip-rule="evenodd" d="m270.906 447.632c0-16.834-13.631-30.465-30.435-30.465-3.613 0-7.08.646-10.311 1.792 11.281 4.465 19.242 15.482 19.242 28.32 0 13.191-8.402 24.442-20.153 28.673 3.467 1.351 7.256 2.115 11.222 2.115 16.804.001 30.435-13.631 30.435-30.435z" fill="#7fdbae" fill-rule="evenodd"/></g></g></svg>