<svg width="16" height="16" viewBox="0 0 16 16" fill="none" xmlns="http://www.w3.org/2000/svg">
<path d="M3.64997 0.830002L12.575 9.755L14.165 8.165L15.2225 9.2225L13.37 11.075L15.755 13.46C16.0475 13.7525 16.0475 14.225 15.755 14.5175L15.2225 15.05C15.1531 15.1195 15.0707 15.1747 14.9799 15.2123C14.8892 15.25 14.7919 15.2693 14.6937 15.2693C14.5955 15.2693 14.4982 15.25 14.4075 15.2123C14.3168 15.1747 14.2344 15.1195 14.165 15.05L11.75 12.6725L9.91997 14.525L8.86247 13.4675L10.4525 11.8775L1.52747 2.9525V0.830002H3.64997ZM10.9175 6.5L14.4725 2.945V0.830002H12.35L8.79497 4.385L10.9175 6.5ZM7.20497 10.25L5.08247 8.0975L3.42497 9.755L1.83497 8.165L0.777468 9.2225L2.62997 11.075L0.244968 13.4675C0.17544 13.5369 0.120279 13.6193 0.0826433 13.71C0.0450072 13.8008 0.0256348 13.898 0.0256348 13.9963C0.0256348 14.0945 0.0450072 14.1917 0.0826433 14.2825C0.120279 14.3732 0.17544 14.4556 0.244968 14.525L0.777468 15.0575C1.06997 15.35 1.54247 15.35 1.83497 15.0575L4.24997 12.6725L6.07997 14.525L7.13747 13.4675L5.54747 11.8775L7.20497 10.25Z" fill="#C8C8C8"/>
</svg>
