<svg width="15" height="15" viewBox="0 0 15 15" fill="none" xmlns="http://www.w3.org/2000/svg">
<path d="M11 0.25C11.5739 0.249968 12.1261 0.469244 12.5437 0.862963C12.9613 1.25668 13.2126 1.79508 13.2463 2.368L13.25 2.5V10H13.8125C14.2978 10 14.6975 10.369 14.7455 10.8415L14.75 10.9375V12.25C14.75 12.8239 14.5308 13.3761 14.137 13.7937C13.7433 14.2113 13.2049 14.4626 12.632 14.4963L12.5 14.5H5C4.42609 14.5 3.87386 14.2808 3.4563 13.887C3.03874 13.4933 2.78742 12.9549 2.75375 12.382L2.75 12.25V4.75H1.4375C1.20541 4.75011 0.981524 4.66412 0.809176 4.50867C0.636827 4.35322 0.528266 4.13937 0.5045 3.9085L0.5 3.8125V2.5C0.499968 1.92609 0.719244 1.37386 1.11296 0.956304C1.50668 0.538745 2.04508 0.287419 2.618 0.25375L2.75 0.25H11ZM13.25 11.5H6.5V12.25C6.5 12.5125 6.455 12.7653 6.3725 13H12.5C12.6989 13 12.8897 12.921 13.0303 12.7803C13.171 12.6397 13.25 12.4489 13.25 12.25V11.5ZM8 7H6.5C6.30884 7.00021 6.12498 7.07341 5.98597 7.20464C5.84697 7.33586 5.76332 7.51522 5.75212 7.70605C5.74092 7.89688 5.80301 8.08478 5.9257 8.23137C6.04839 8.37796 6.22243 8.47217 6.41225 8.49475L6.5 8.5H8C8.19116 8.49979 8.37502 8.42659 8.51403 8.29536C8.65303 8.16414 8.73668 7.98479 8.74788 7.79395C8.75908 7.60312 8.69699 7.41522 8.5743 7.26863C8.45161 7.12204 8.27757 7.02783 8.08775 7.00525L8 7ZM9.5 4H6.5C6.30109 4 6.11032 4.07902 5.96967 4.21967C5.82902 4.36032 5.75 4.55109 5.75 4.75C5.75 4.94891 5.82902 5.13968 5.96967 5.28033C6.11032 5.42098 6.30109 5.5 6.5 5.5H9.5C9.69891 5.5 9.88968 5.42098 10.0303 5.28033C10.171 5.13968 10.25 4.94891 10.25 4.75C10.25 4.55109 10.171 4.36032 10.0303 4.21967C9.88968 4.07902 9.69891 4 9.5 4ZM2.75 1.75C2.55109 1.75 2.36032 1.82902 2.21967 1.96967C2.07902 2.11032 2 2.30109 2 2.5V3.25H2.75V1.75Z" fill="#C8C8C8"/>
</svg>
