<svg width="16" height="16" viewBox="0 0 16 16" fill="none" xmlns="http://www.w3.org/2000/svg">
<path d="M14.4997 3.54817L9.13062 0.42805C8.78704 0.228897 8.39695 0.124016 7.99982 0.124016C7.60269 0.124016 7.21261 0.228897 6.86902 0.42805L1.50031 3.54817C1.47917 3.56057 1.46163 3.5783 1.44945 3.59957C1.43726 3.62085 1.43085 3.64494 1.43085 3.66946C1.43085 3.69397 1.43726 3.71807 1.44945 3.73934C1.46163 3.76062 1.47917 3.77834 1.50031 3.79075L7.92969 7.57285C7.95131 7.58559 7.97596 7.59231 8.00105 7.59231C8.02615 7.59231 8.0508 7.58559 8.07242 7.57285L14.5004 3.79075C14.5215 3.77828 14.539 3.76051 14.5511 3.73919C14.5632 3.71788 14.5696 3.69377 14.5695 3.66926C14.5694 3.64474 14.5629 3.62066 14.5507 3.59942C14.5385 3.57818 14.5209 3.56051 14.4997 3.54817ZM8 4.34375C7.53418 4.34375 7.15625 4.09203 7.15625 3.78125C7.15625 3.47047 7.53418 3.21875 8 3.21875C8.46582 3.21875 8.84375 3.47047 8.84375 3.78125C8.84375 4.09203 8.46582 4.34375 8 4.34375ZM7.36719 8.52067L0.898438 4.74735C0.87707 4.73501 0.852834 4.72851 0.828161 4.72851C0.803488 4.7285 0.779248 4.73499 0.757875 4.74731C0.736501 4.75964 0.718747 4.77737 0.706394 4.79873C0.694041 4.82008 0.687525 4.84432 0.6875 4.86899V10.9834C0.688031 11.278 0.765677 11.5673 0.912715 11.8226C1.05975 12.0779 1.27106 12.2902 1.52562 12.4385L7.22656 15.8567C7.24793 15.8691 7.27217 15.8756 7.29684 15.8756C7.32151 15.8756 7.34575 15.8691 7.36713 15.8568C7.3885 15.8444 7.40625 15.8267 7.41861 15.8053C7.43096 15.784 7.43747 15.7598 7.4375 15.7351V8.64231C7.43747 8.61765 7.43096 8.59343 7.41862 8.57208C7.40628 8.55073 7.38854 8.533 7.36719 8.52067ZM2.375 11.9375C2.06422 11.9375 1.8125 11.5596 1.8125 11.0938C1.8125 10.6279 2.06422 10.25 2.375 10.25C2.68578 10.25 2.9375 10.6279 2.9375 11.0938C2.9375 11.5596 2.68578 11.9375 2.375 11.9375ZM5.75 10.8125C5.43922 10.8125 5.1875 10.4346 5.1875 9.96875C5.1875 9.50293 5.43922 9.125 5.75 9.125C6.06078 9.125 6.3125 9.50293 6.3125 9.96875C6.3125 10.4346 6.06078 10.8125 5.75 10.8125ZM15.1016 4.7484L8.63281 8.54703C8.61151 8.55933 8.5938 8.57701 8.58146 8.59829C8.56913 8.61958 8.56259 8.64372 8.5625 8.66832V15.7344C8.56253 15.7591 8.56904 15.7833 8.58139 15.8046C8.59375 15.826 8.6115 15.8437 8.63287 15.8561C8.65425 15.8684 8.67849 15.8749 8.70316 15.8749C8.72783 15.8749 8.75207 15.8684 8.77344 15.856L14.474 12.4378C14.7285 12.2896 14.9399 12.0774 15.087 11.8222C15.2341 11.5671 15.3118 11.2779 15.3125 10.9834V4.8711C15.3127 4.84634 15.3063 4.82197 15.294 4.80047C15.2817 4.77896 15.264 4.76108 15.2426 4.74863C15.2212 4.73618 15.1969 4.7296 15.1721 4.72956C15.1473 4.72952 15.123 4.73602 15.1016 4.7484ZM10.25 13.9063C9.93922 13.9063 9.6875 13.5283 9.6875 13.0625C9.6875 12.5967 9.93922 12.2188 10.25 12.2188C10.5608 12.2188 10.8125 12.5967 10.8125 13.0625C10.8125 13.5283 10.5608 13.9063 10.25 13.9063ZM10.25 10.8125C9.93922 10.8125 9.6875 10.4346 9.6875 9.96875C9.6875 9.50293 9.93922 9.125 10.25 9.125C10.5608 9.125 10.8125 9.50293 10.8125 9.96875C10.8125 10.4346 10.5608 10.8125 10.25 10.8125ZM13.625 11.9375C13.3142 11.9375 13.0625 11.5596 13.0625 11.0938C13.0625 10.6279 13.3142 10.25 13.625 10.25C13.9358 10.25 14.1875 10.6279 14.1875 11.0938C14.1875 11.5596 13.9358 11.9375 13.625 11.9375ZM13.625 8.84375C13.3142 8.84375 13.0625 8.46582 13.0625 8C13.0625 7.53418 13.3142 7.15625 13.625 7.15625C13.9358 7.15625 14.1875 7.53418 14.1875 8C14.1875 8.46582 13.9358 8.84375 13.625 8.84375Z" fill="#C8C8C8"/>
</svg>
