<svg width="16" height="16" viewBox="0 0 16 16" fill="none" xmlns="http://www.w3.org/2000/svg">
<path d="M0.327531 5.31687L5.00191 9.575C5.34503 9.89 5.90191 9.6425 5.90191 9.17562V7.13375C5.90191 6.93687 6.06503 6.77375 6.26191 6.77375H15.1832C15.5544 6.77375 15.8525 6.47562 15.8525 6.10437V3.73625C15.8525 3.365 15.5544 3.06687 15.1832 3.06687H6.26191C6.06503 3.06687 5.90191 2.90375 5.90191 2.70687V0.664998C5.90191 0.198123 5.34503 -0.0493772 5.00191 0.265623L0.327531 4.52375C0.271747 4.57366 0.227121 4.63478 0.196568 4.70311C0.166015 4.77145 0.150223 4.84546 0.150223 4.92031C0.150223 4.99516 0.166015 5.06917 0.196568 5.13751C0.227121 5.20584 0.271747 5.26696 0.327531 5.31687ZM8.18566 15.1775L6.75691 11.2681C6.66691 10.9925 6.40816 10.8125 6.12128 10.8125C5.83441 10.8125 5.57566 10.9925 5.49128 11.2569L4.04566 15.1831C3.94441 15.4531 4.08503 15.7456 4.35503 15.8469C4.41128 15.8637 4.47316 15.875 4.53503 15.875C4.74316 15.875 4.94566 15.7456 5.01878 15.5375L5.24941 14.9019C5.27191 14.9075 5.29441 14.9075 5.31691 14.9075H6.93128C6.94816 14.9075 6.97066 14.9075 6.98753 14.9019L7.21816 15.5319C7.31941 15.8019 7.61191 15.9425 7.88191 15.8412C8.14628 15.7456 8.28128 15.4475 8.18566 15.1775ZM5.63191 13.8725L6.12128 12.5337L6.60503 13.8725H5.63191ZM3.62941 12.3369C3.62941 12.635 3.54503 12.9106 3.39878 13.1412C3.58561 13.2827 3.73716 13.4655 3.84158 13.6753C3.946 13.8851 4.00044 14.1163 4.00066 14.3506C4.00066 15.1269 3.41003 15.7794 2.65066 15.8637C2.62816 15.8694 2.60003 15.875 2.57753 15.8694C2.54378 15.875 2.51003 15.875 2.47628 15.875H0.642531C0.574096 15.875 0.506339 15.8614 0.443184 15.8351C0.380029 15.8087 0.322728 15.7701 0.2746 15.7214C0.226471 15.6728 0.18847 15.6151 0.162797 15.5516C0.137123 15.4882 0.124287 15.4203 0.125031 15.3519V11.3244C0.125031 11.0431 0.355656 10.8125 0.642531 10.8125H2.10503C2.16128 10.8125 2.21191 10.8125 2.25691 10.8181C2.29246 10.8242 2.32809 10.8298 2.36378 10.835C3.08378 10.9587 3.62941 11.5887 3.62941 12.3369ZM2.11066 11.8475H1.16003V12.8262H2.10503C2.37503 12.8262 2.60003 12.6069 2.60003 12.3369C2.60003 12.2071 2.54847 12.0826 2.4567 11.9908C2.36492 11.8991 2.24045 11.8475 2.11066 11.8475ZM1.16003 13.8556V14.8344H2.48191C2.6117 14.8344 2.73617 14.7828 2.82795 14.691C2.91972 14.5993 2.97128 14.4748 2.97128 14.345C2.97128 14.2152 2.91972 14.0907 2.82795 13.999C2.73617 13.9072 2.6117 13.8556 2.48191 13.8556H1.16003ZM11.7125 14.9469C11.5072 15.3011 11.1908 15.5777 10.8124 15.7338C10.4339 15.89 10.0146 15.917 9.61922 15.8106C9.22388 15.7043 8.87465 15.4705 8.62565 15.1455C8.37665 14.8205 8.24177 14.4225 8.24191 14.0131V12.6744C8.24191 11.645 9.0744 10.8125 10.1038 10.8125C10.7675 10.8125 11.3863 11.1725 11.7182 11.7406C11.8644 11.9881 11.7744 12.3031 11.5325 12.4494C11.285 12.5956 10.97 12.5112 10.8238 12.2637C10.7499 12.1381 10.6448 12.0337 10.5186 11.9608C10.3924 11.8878 10.2495 11.8488 10.1038 11.8475C9.65378 11.8475 9.27691 12.2187 9.27691 12.6744V14.0131C9.27691 14.4687 9.65378 14.84 10.1038 14.84C10.4019 14.84 10.6719 14.6825 10.8238 14.4237C10.97 14.1819 11.2794 14.0919 11.5325 14.2381C11.7688 14.3844 11.8588 14.6994 11.7125 14.9469ZM14.3169 12.9894L15.7794 15.0594C15.9425 15.2956 15.8919 15.6162 15.65 15.785C15.4138 15.9481 15.0932 15.8919 14.93 15.6612L13.5744 13.7375L13.1863 14.1256V15.3631C13.1863 15.65 12.9557 15.8806 12.6688 15.8806C12.3819 15.8806 12.1513 15.65 12.1513 15.3631V11.33C12.1513 11.0431 12.3819 10.8125 12.6688 10.8125C12.9557 10.8125 13.1863 11.0431 13.1863 11.33V12.6631L14.8794 10.9644C15.0819 10.7619 15.4082 10.7619 15.6107 10.9644C15.8132 11.1669 15.8132 11.4931 15.6107 11.6956L14.3169 12.9894Z" fill="#C8C8C8"/>
</svg>
